<svg width="2048" height="454" viewBox="0 0 2048 454" fill="none" xmlns="http://www.w3.org/2000/svg">
<path d="M269.916 54.9874L427.112 208.354L269.916 361.72C262.515 368.941 253.728 374.669 244.058 378.577C234.388 382.485 224.023 384.497 213.556 384.497C203.089 384.497 192.724 382.485 183.054 378.577C173.384 374.669 164.597 368.941 157.196 361.72L8.96885e-05 208.354L157.196 54.9874C172.143 40.4038 192.417 32.2109 213.556 32.2109C234.695 32.2109 254.969 40.4038 269.916 54.9874Z" fill="url(#paint0_linear_2006_2)"/>
<path d="M249.565 144.015L251.872 147.477L283.616 115.751L285.154 118.06L255.911 147.286L256.68 148.44L268.801 136.327L272.069 140.751L276.109 136.713L278.609 139.984L280.917 137.676L283.224 141.139L283.417 140.947L285.916 144.217L286.686 143.448L287.647 144.41L287.262 144.794L290.531 149.219L289.954 149.796L293.222 154.22L296.683 158.453L300.338 154.799L301.107 155.954L298.991 158.069L299.952 159.031L303.8 155.185L304.762 156.147L298.605 162.3L299.374 163.454L297.258 165.569L299.757 168.84L306.106 162.494L309.375 166.919L316.685 159.612L319.185 162.883L313.413 168.651L314.182 169.805L311.296 172.689L314.565 177.114L316.104 175.576L317.834 177.692L319.566 175.961L322.065 179.232L319.179 182.116L321.679 185.386L315.33 191.731L317.061 193.848L323.602 187.31L326.87 191.735L322.638 195.965L326.098 200.197L329.946 196.351L332.446 199.622L317.632 214.427L319.17 216.736L324.749 211.16L325.71 212.506L326.479 213.276L331.674 208.084C331.802 208.469 331.994 208.918 332.251 209.431C332.635 209.816 332.827 210.264 332.827 210.777L330.711 212.892C331.223 214.688 331.351 216.483 331.094 218.278L332.826 216.547C332.569 217.829 332.312 218.727 332.055 219.24L333.595 217.701C333.081 219.24 332.055 220.778 330.516 222.317L303.005 249.813C302.235 250.582 301.466 251.223 300.696 251.735C299.927 251.992 299.222 252.312 298.58 252.696L297.041 254.235C296.528 254.491 296.079 254.683 295.695 254.811C295.182 254.811 294.733 254.875 294.348 255.003L292.809 256.542C291.784 256.541 290.822 256.477 289.924 256.348C289.027 256.22 288.258 256.091 287.616 255.963L289.733 253.848C289.476 253.848 289.22 253.72 288.963 253.463L287.04 252.693L281.846 257.885L279.154 256.73L273.574 262.306L270.882 261.151L285.696 246.346L281.657 244.614L277.617 248.652L272.232 246.342L276.465 242.112L271.08 239.803L264.539 246.34L261.847 245.185L268.003 239.032L263.965 237.3L266.85 234.416L262.812 232.684L261.08 234.414L258.388 233.26L256.849 234.798L251.464 232.489L254.35 229.604L253.004 229.027L258.775 223.259L254.737 221.526L247.426 228.833L242.042 226.524L235.693 232.869L232.231 231.329L233.769 234.792L232.999 235.561L235.306 240.947L247.234 229.025L248.964 233.065L239.537 242.487L240.114 243.833L241.845 242.103L244.152 247.488L247.614 244.027L248.768 246.72L239.148 256.334L240.878 260.374L246.073 255.182L247.803 259.222L241.454 265.567L242.607 268.26L245.685 265.184L247.992 270.569L248.184 270.377L250.491 275.763L237.793 288.454L239.523 292.493L259.724 272.304L260.877 274.997L256.644 279.227L257.798 281.92L257.413 282.304L258.182 284.228L258.374 285.19L252.41 291.15C252.538 291.791 252.666 292.561 252.794 293.458C253.05 294.228 253.114 295.19 252.985 296.343L254.14 295.19C254.139 295.959 253.947 296.793 253.562 297.69L258.756 292.498C258.372 293.139 257.987 293.909 257.602 294.806C257.089 295.575 256.447 296.344 255.678 297.114L228.167 324.61C226.628 326.148 225.089 327.173 223.55 327.686L218.548 332.685C218.035 332.941 217.137 333.197 215.855 333.454L214.508 334.8C212.457 335.055 210.661 334.927 209.123 334.413L215.279 328.26C214.895 328.132 214.446 327.94 213.933 327.683C213.42 327.426 212.972 327.234 212.587 327.106L213.164 326.529L212.203 325.952L210.857 324.99L215.089 320.759L212.781 319.22L192.773 339.217L189.504 336.716L202.009 324.218L197.779 320.755L197.587 320.947L193.164 317.676L190.086 320.752L187.971 319.021L194.127 312.868L190.858 310.367L185.856 315.366L182.587 312.865L192.206 303.251L189.899 301.711L186.436 305.172L182.013 301.902L180.281 303.632L179.128 302.862L188.555 293.441L185.286 290.94L173.358 302.861L168.935 299.59L169.704 298.821L166.243 296.512L168.359 294.397L167.398 293.435L173.554 287.282L172.401 286.512L168.36 290.55L167.207 289.781L169.323 287.665L168.361 286.704L164.514 290.549L162.399 288.818L162.206 289.01L160.091 287.278L155.668 284.007L156.245 283.431L151.823 280.16L152.207 279.775L151.054 279.005L150.284 279.775L147.015 277.273L146.823 277.466L143.554 274.964L141.245 277.272L137.976 274.771L133.936 278.808L129.513 275.538L117.393 287.651L116.432 286.689L145.674 257.463L143.559 255.731L132.016 267.268L128.747 264.767L116.627 276.88L114.511 275.149L132.019 257.651L127.596 254.38L122.979 258.995L122.017 258.033L124.711 255.341L123.557 254.572L127.597 250.534L124.328 248.032L117.787 254.57L116.633 253.8L101.627 268.798L97.3965 265.335L114.134 248.607L109.711 245.336L105.479 249.566L103.364 247.834L105.095 246.104L101.826 243.603L102.403 243.026L101.249 242.256L95.2855 248.217L93.1703 246.485L97.2104 242.447L93.9415 239.946L94.3262 239.562L91.0573 237.06L94.3278 233.792L92.0203 232.252L81.6314 242.635L79.5162 240.904L87.7888 232.636L85.6736 230.904L80.864 235.711L78.7488 233.98L84.7128 228.019L81.4438 225.518L79.5199 227.44L75.0972 224.17L77.2134 222.055L76.0596 221.285L73.5598 219.553L72.7907 218.784L69.9049 221.668C67.4695 218.718 67.5343 215.961 70.0995 213.398L105.883 177.633C109.859 173.66 113.45 172.763 116.655 174.944L119.54 172.06C119.925 172.188 120.374 172.509 120.887 173.022L122.809 174.561L123.963 175.33L122.039 177.253L126.27 180.716L128.194 178.794L131.463 181.295L125.306 187.448L127.614 188.987L132.231 184.372L134.346 186.104L126.074 194.372L128.189 196.104L138.578 185.72L140.885 187.26L137.615 190.529L140.691 193.222L140.499 193.414L143.575 196.108L139.343 200.338L141.651 201.877L147.422 196.109L148.576 196.879L147.999 197.455L151.268 199.957L149.536 201.687L151.651 203.419L155.884 199.189L160.307 202.459L143.377 219.38L147.607 222.843L162.613 207.845L163.767 208.615L170.308 202.078L173.577 204.579L169.537 208.617L170.498 209.579L167.805 212.27L168.959 213.04L172.999 209.002L172.422 207.656L174.346 205.733L173.769 204.386L181.85 196.311L179.927 192.464L171.078 201.308L170.309 200.154L185.122 185.349L182.623 180.155L167.04 195.73L164.349 190.728L162.617 192.459L162.233 192.074L161.272 189.958L164.927 186.305C164.671 185.535 164.415 184.766 164.158 183.997C164.03 183.099 164.031 182.201 164.159 181.304L163.005 182.458C163.133 181.304 163.518 180.278 164.16 179.381L165.891 177.65C166.148 177.137 166.661 176.496 167.43 175.727L187.054 156.115C187.823 155.345 188.4 154.897 188.785 154.769L187.054 156.499C187.695 156.115 188.208 155.858 188.593 155.73C189.105 155.474 189.618 155.346 190.131 155.346L191.286 154.192C192.311 153.936 193.209 153.936 193.978 154.193C194.876 154.322 195.645 154.578 196.286 154.963L192.823 158.424C193.721 158.553 194.426 158.873 194.938 159.386L195.515 159.579L197.439 157.656L202.439 160.35L209.942 152.851L206.674 148.427L205.52 149.58L203.789 147.464L212.831 138.427L210.139 135.349L201.674 143.809L200.905 142.655L199.366 144.193L197.828 141.885L201.099 138.616L198.599 135.346L197.445 136.499L194.946 133.229L197.639 130.537L195.909 128.421L184.173 140.15L182.443 138.034L185.906 134.573L184.175 132.457L190.716 125.919L188.986 123.803L188.794 123.995L186.294 120.725L182.833 116.493L178.986 120.338L178.217 119.184L182.834 114.569L181.488 112.453L180.334 111.299L183.99 107.646C181.811 104.44 182.709 100.85 186.685 96.8759L222.469 61.1118C223.495 60.0863 224.778 59.5737 226.316 59.5742C227.983 59.4464 229.458 59.8956 230.74 60.9217L227.277 64.3828L228.046 65.1523L229.776 67.6531L224.966 72.4601L225.735 73.6143L229.776 69.5764L233.044 74.001L235.543 77.2713L235.736 77.0791L237.274 79.3875L230.733 85.925L232.463 88.0411L229 91.5022L230.538 93.8106L242.466 81.8892L244.197 84.0054L241.503 86.6973L244.003 89.9677L244.964 89.0063L247.464 92.2766L244.193 95.5454L245.731 97.8538L247.27 96.3155L248.039 97.4698L256.504 89.0094L259.004 92.2798L250.154 101.125L251.692 103.433L252.846 102.279L256.115 106.704L249.189 113.626L252.457 118.051L260.922 109.59L261.691 110.744L251.88 120.551L254.379 123.821L263.421 114.784L264.383 115.746L263.806 116.323L264.575 117.477L265.152 116.9L268.42 121.325L271.498 118.248L273.036 120.557L249.565 144.015ZM214.942 155.545L208.401 162.083L209.555 162.852L215.711 156.699L214.942 155.545ZM214.171 164.008L215.517 164.585L213.593 166.508L214.939 167.085L220.131 169.587L199.354 190.353L201.854 191.7L227.441 166.127L225.711 164.011L222.632 167.087L219.364 162.663L218.787 163.24L218.018 162.085L218.402 161.701L217.633 160.547L214.171 164.008ZM189.732 209.584L189.155 210.161L190.885 211.508L189.732 209.584ZM239.174 162.861L238.021 161.322L237.251 162.091L239.174 162.861Z" fill="white"/>
<path d="M1981.29 147.519C1975.56 147.618 1969.9 146.263 1964.88 143.585C1960.12 141.019 1956.18 137.24 1953.46 132.653C1950.61 127.782 1949.16 122.25 1949.26 116.642C1949.16 111.034 1950.61 105.503 1953.46 100.632C1956.18 96.045 1960.12 92.2658 1964.88 89.6994C1969.93 87.0956 1975.57 85.7346 1981.29 85.7346C1987 85.7346 1992.64 87.0956 1997.7 89.6994C2002.46 92.2588 2006.41 96.0391 2009.14 100.632C2011.98 105.505 2013.42 111.036 2013.31 116.642C2013.42 122.248 2011.98 127.779 2009.14 132.653C2006.41 137.246 2002.46 141.026 1997.7 143.585C1992.67 146.271 1987.01 147.628 1981.29 147.519ZM1981.29 141.275C1984.66 141.483 1988.04 140.987 1991.21 139.821C1994.37 138.654 1997.25 136.843 1999.64 134.508C2002.03 132.173 2003.88 129.368 2005.07 126.28C2006.27 123.191 2006.77 119.89 2006.56 116.597C2006.66 113.294 2006.08 110.005 2004.86 106.924C2003.63 103.844 2001.79 101.034 1999.43 98.6626C1997.07 96.291 1994.25 94.4055 1991.13 93.1179C1988.01 91.8303 1984.66 91.1668 1981.27 91.1668C1977.89 91.1668 1974.53 91.8303 1971.42 93.1179C1968.3 94.4055 1965.47 96.291 1963.12 98.6626C1960.76 101.034 1958.91 103.844 1957.69 106.924C1956.46 110.005 1955.89 113.294 1955.99 116.597C1955.78 119.891 1956.29 123.193 1957.48 126.281C1958.68 129.369 1960.53 132.174 1962.93 134.508C1965.32 136.843 1968.19 138.654 1971.36 139.82C1974.52 140.987 1977.91 141.483 1981.29 141.275ZM1970.29 132.813V99.8087H1983.23C1986.32 99.585 1989.38 100.545 1991.76 102.485C1992.67 103.267 1993.4 104.228 1993.9 105.304C1994.4 106.38 1994.66 107.547 1994.67 108.729C1994.7 110.494 1994.19 112.229 1993.22 113.715C1992.06 115.284 1990.41 116.453 1988.53 117.054V118.541C1989.24 118.52 1989.94 118.655 1990.58 118.936C1991.23 119.217 1991.8 119.637 1992.26 120.165C1993.07 121.352 1993.47 122.763 1993.4 124.19V132.813H1987.01V123.893C1987.07 123.467 1987.03 123.033 1986.89 122.625C1986.75 122.217 1986.51 121.846 1986.2 121.542C1985.89 121.237 1985.51 121.008 1985.09 120.873C1984.67 120.737 1984.23 120.698 1983.79 120.759H1976.76V132.813H1970.29ZM1976.71 115.224H1983.25C1983.97 115.276 1984.68 115.169 1985.34 114.912C1986 114.654 1986.6 114.253 1987.08 113.738C1987.87 112.773 1988.3 111.569 1988.29 110.33C1988.34 109.084 1987.91 107.867 1987.08 106.922C1986.58 106.442 1985.98 106.073 1985.32 105.84C1984.66 105.607 1983.95 105.516 1983.25 105.572H1976.71V115.224Z" fill="#00A884"/>
<path d="M538.027 298.873H492.267C488.213 298.873 484.8 297.7 482.027 295.353C479.467 292.793 477.973 289.913 477.547 286.713L448.107 82.8733V81.9133C448.107 79.9933 448.747 78.3933 450.027 77.1133C451.52 75.6199 453.227 74.8733 455.147 74.8733H514.667C521.707 74.8733 525.547 77.7533 526.187 83.5133L537.067 173.753L550.187 133.753C552.32 127.567 555.947 124.473 561.067 124.473H593.707C598.827 124.473 602.453 127.567 604.587 133.753L617.707 173.433L628.587 83.5133C629.227 77.7533 633.067 74.8733 640.107 74.8733H699.627C701.547 74.8733 703.147 75.6199 704.427 77.1133C705.92 78.3933 706.667 79.9933 706.667 81.9133V82.8733L677.227 286.713C676.8 289.913 675.2 292.793 672.427 295.353C669.867 297.7 666.56 298.873 662.507 298.873H616.747C610.133 298.873 605.76 295.993 603.627 290.233L577.387 224.633L551.147 290.233C549.013 295.993 544.64 298.873 538.027 298.873ZM729.044 251.193C729.044 222.393 752.404 203.94 799.124 195.833L833.044 190.393C833.044 183.993 832.511 179.727 831.444 177.593C830.378 175.247 827.818 174.073 823.764 174.073C819.924 174.073 816.084 175.78 812.244 179.193C808.404 182.607 804.778 184.313 801.364 184.313H746.964C742.271 184.313 739.924 182.073 739.924 177.593C739.924 172.9 741.524 167.993 744.724 162.873C748.138 157.54 752.938 152.313 759.124 147.193C765.524 142.073 774.378 137.807 785.684 134.393C797.204 130.98 810.004 129.273 824.084 129.273C852.671 129.273 874.111 135.247 888.404 147.193C902.698 159.14 909.844 176.207 909.844 198.393V290.233C909.844 292.58 908.991 294.607 907.284 296.313C905.578 298.02 903.551 298.873 901.204 298.873H845.204C842.858 298.873 840.831 298.02 839.124 296.313C837.418 294.607 836.564 292.58 836.564 290.233V281.273C826.538 295.14 811.924 302.073 792.724 302.073C773.524 302.073 758.058 297.273 746.324 287.673C734.804 277.86 729.044 265.7 729.044 251.193ZM813.204 254.713C827.071 254.713 834.004 246.393 834.004 229.753L815.124 233.913C805.738 236.047 801.044 239.993 801.044 245.753C801.044 248.313 802.111 250.447 804.244 252.153C806.378 253.86 809.364 254.713 813.204 254.713ZM1021.69 159.993V213.753C1021.69 231.033 1029.59 239.673 1045.37 239.673C1057.53 239.673 1065.53 233.913 1069.37 222.393C1070.44 218.767 1071.72 216.313 1073.21 215.033C1074.92 213.753 1077.59 213.113 1081.21 213.113H1146.49C1148.41 213.113 1150.01 213.86 1151.29 215.353C1152.79 216.633 1153.53 218.233 1153.53 220.153C1153.53 238.713 1148.2 254.287 1137.53 266.873C1117.91 290.34 1087.29 302.073 1045.69 302.073C1013.05 302.073 987.028 294.927 967.614 280.633C948.201 266.127 938.494 243.94 938.494 214.073V159.673C938.494 130.447 948.414 108.473 968.254 93.7533C988.094 79.0333 1013.91 71.6733 1045.69 71.6733C1087.29 71.6733 1117.91 83.4066 1137.53 106.873C1148.2 119.46 1153.53 135.033 1153.53 153.593C1153.53 155.513 1152.79 157.22 1151.29 158.713C1150.01 159.993 1148.41 160.633 1146.49 160.633H1081.21C1077.8 160.633 1075.24 159.993 1073.53 158.713C1072.04 157.433 1070.65 154.98 1069.37 151.353C1065.32 139.833 1057.32 134.073 1045.37 134.073C1029.59 134.073 1021.69 142.713 1021.69 159.993ZM1174.36 226.553V204.793C1174.36 180.473 1183 161.807 1200.28 148.793C1217.56 135.78 1239.85 129.273 1267.16 129.273C1294.46 129.273 1316.76 135.78 1334.04 148.793C1351.32 161.807 1359.96 180.473 1359.96 204.793V226.553C1359.96 251.087 1351.64 269.86 1335 282.873C1318.36 295.673 1295.74 302.073 1267.16 302.073C1238.57 302.073 1215.96 295.673 1199.32 282.873C1182.68 269.86 1174.36 251.087 1174.36 226.553ZM1281.56 229.113V202.233C1281.56 194.127 1280.49 188.473 1278.36 185.273C1276.22 182.073 1272.49 180.473 1267.16 180.473C1261.82 180.473 1258.09 182.073 1255.96 185.273C1253.82 188.473 1252.76 194.127 1252.76 202.233V229.113C1252.76 237.647 1253.82 243.407 1255.96 246.393C1258.09 249.38 1261.82 250.873 1267.16 250.873C1272.49 250.873 1276.22 249.273 1278.36 246.073C1280.49 242.873 1281.56 237.22 1281.56 229.113ZM1457.36 141.113V152.313C1472.3 139.087 1488.94 132.473 1507.28 132.473H1522.64C1524.99 132.473 1527.02 133.327 1528.72 135.033C1530.43 136.74 1531.28 138.767 1531.28 141.113V191.033C1531.28 193.38 1530.43 195.407 1528.72 197.113C1527.02 198.82 1524.99 199.673 1522.64 199.673H1481.36C1475.6 199.673 1471.02 201.06 1467.6 203.833C1464.4 206.393 1462.59 209.913 1462.16 214.393V290.233C1462.16 292.58 1461.31 294.607 1459.6 296.313C1457.9 298.02 1455.87 298.873 1453.52 298.873H1392.72C1390.38 298.873 1388.35 298.02 1386.64 296.313C1384.94 294.607 1384.08 292.58 1384.08 290.233V141.113C1384.08 138.767 1384.94 136.74 1386.64 135.033C1388.35 133.327 1390.38 132.473 1392.72 132.473H1448.72C1451.07 132.473 1453.1 133.327 1454.8 135.033C1456.51 136.74 1457.36 138.767 1457.36 141.113ZM1743.85 203.193V228.473C1743.85 252.367 1737.45 270.607 1724.65 283.193C1711.85 295.78 1696.17 302.073 1677.61 302.073C1659.26 302.073 1644.54 297.06 1633.45 287.033V351.033C1633.45 353.38 1632.6 355.407 1630.89 357.113C1629.18 358.82 1627.16 359.673 1624.81 359.673H1565.61C1563.26 359.673 1561.24 358.82 1559.53 357.113C1557.82 355.407 1556.97 353.38 1556.97 351.033V141.113C1556.97 138.767 1557.82 136.74 1559.53 135.033C1561.24 133.327 1563.26 132.473 1565.61 132.473H1620.01C1622.36 132.473 1624.38 133.327 1626.09 135.033C1627.8 136.74 1628.65 138.767 1628.65 141.113V150.713C1639.74 136.42 1655.42 129.273 1675.69 129.273C1695.96 129.273 1712.38 135.353 1724.97 147.513C1737.56 159.46 1743.85 178.02 1743.85 203.193ZM1633.45 205.113V228.793C1634.09 239.46 1639.42 244.793 1649.45 244.793C1660.12 244.793 1665.45 238.607 1665.45 226.233V205.113C1665.45 192.74 1660.12 186.553 1649.45 186.553C1638.78 186.553 1633.45 192.74 1633.45 205.113ZM1859.67 252.793C1859.67 250.66 1859.14 248.953 1858.07 247.673C1855.3 244.26 1845.06 240.953 1827.35 237.753C1809.65 234.34 1795.25 228.473 1784.15 220.153C1773.27 211.62 1767.83 199.78 1767.83 184.633C1767.83 169.487 1775.09 156.473 1789.59 145.593C1804.1 134.713 1823.62 129.273 1848.15 129.273C1872.9 129.273 1893.17 134.393 1908.95 144.633C1924.74 154.873 1932.63 165.22 1932.63 175.673C1932.63 178.02 1931.89 180.047 1930.39 181.753C1929.11 183.46 1927.51 184.313 1925.59 184.313H1871.83C1868.63 184.313 1864.69 182.607 1859.99 179.193C1855.3 175.78 1851.78 174.073 1849.43 174.073C1844.53 174.073 1842.07 175.78 1842.07 179.193C1842.07 181.327 1842.61 183.033 1843.67 184.313C1846.45 187.513 1858.07 190.607 1878.55 193.593C1899.03 196.58 1914.29 203.193 1924.31 213.433C1934.55 223.46 1939.67 234.66 1939.67 247.033C1939.67 264.313 1931.89 277.86 1916.31 287.673C1900.74 297.487 1878.66 302.393 1850.07 302.393C1834.93 302.393 1821.49 300.687 1809.75 297.273C1798.02 293.86 1789.06 289.593 1782.87 284.473C1770.71 274.447 1764.63 265.06 1764.63 256.313C1764.63 253.967 1765.38 251.94 1766.87 250.233C1768.37 248.527 1770.18 247.673 1772.31 247.673H1827.99C1830.98 247.673 1834.82 249.38 1839.51 252.793C1844.42 255.993 1849.01 257.593 1853.27 257.593C1857.54 257.593 1859.67 255.993 1859.67 252.793Z" fill="url(#paint1_linear_2006_2)"/>
<defs>
<linearGradient id="paint0_linear_2006_2" x1="123.996" y1="242.732" x2="424.811" y2="144.898" gradientUnits="userSpaceOnUse">
<stop stop-color="#00A884"/>
<stop offset="1" stop-color="#0EC3E5"/>
</linearGradient>
<linearGradient id="paint1_linear_2006_2" x1="994.743" y1="80.8428" x2="1113.72" y2="453.384" gradientUnits="userSpaceOnUse">
<stop stop-color="#0EC3E5"/>
<stop offset="1" stop-color="#00A884"/>
</linearGradient>
</defs>
</svg>
